<svg width="18" height="18" viewBox="0 0 18 18" fill="none" xmlns="http://www.w3.org/2000/svg">
    <path d="M18 2.75V15.25C18 16.765 16.765 18 15.25 18H12.5V11H14.31C14.565 11 14.78 10.81 14.81 10.56L14.995 9.06C15.015 8.92 14.97 8.775 14.875 8.67C14.78 8.56 14.645 8.5 14.5 8.5H12.5V6.75C12.5 6.2 12.95 5.75 13.5 5.75H14.5C14.775 5.75 15 5.525 15 5.25V3.56C15 3.305 14.8 3.09 14.545 3.065C14.515 3.06 13.81 3 12.915 3C10.715 3 9.5 4.31 9.5 6.685V8.5H7.5C7.225 8.5 7 8.725 7 9V10.5C7 10.775 7.225 11 7.5 11H9.5V18H2.75C1.235 18 0 16.765 0 15.25V2.75C0 1.235 1.235 0 2.75 0H15.25C16.765 0 18 1.235 18 2.75Z" fill="#3B5998"></path>
</svg>