<svg width="14" height="12" viewBox="0 0 14 12" fill="none" xmlns="http://www.w3.org/2000/svg">
    <path d="M13.9063 1.435C13.808 1.33333 13.6567 1.30433 13.5277 1.36367L13.473 1.38867C13.4267 1.41 13.3803 1.43133 13.3337 1.45233C13.4693 1.236 13.577 1.00467 13.6513 0.765333C13.6927 0.633333 13.6477 0.489 13.5383 0.403667C13.429 0.318333 13.2783 0.309333 13.16 0.381667C12.7797 0.612667 12.4143 0.779 12.0367 0.895C11.4667 0.342 10.6903 0 9.83334 0C8.08434 0 6.66667 1.41767 6.66667 3.16667C6.66667 3.16833 6.66667 3.23433 6.66667 3.33333L6.33367 3.30667C3.09267 2.92333 2.17 0.743333 2.13167 0.649333C2.06967 0.492667 1.933 0.378333 1.768 0.344C1.60334 0.309 1.43234 0.360667 1.313 0.479667C1.247 0.546 0.666671 1.16 0.666671 2.33333C0.666671 3.16933 1.03934 3.84733 1.52167 4.37467C1.297 4.23767 1.166 4.12667 1.16267 4.12367C1.009 3.98967 0.789004 3.96167 0.606337 4.05433C0.424337 4.14733 0.317004 4.34167 0.335337 4.54533C0.341671 4.61567 0.483671 5.94967 2.02467 6.957L1.74367 7.008C1.57334 7.039 1.431 7.156 1.36767 7.31733C1.30467 7.479 1.32934 7.66133 1.43334 7.8C1.46834 7.847 2.11934 8.69333 3.533 9.18C2.778 9.43167 1.74067 9.66667 0.500004 9.66667C0.304004 9.66667 0.125671 9.78133 0.0446708 9.96C-0.0366625 10.1387 -0.00566249 10.3483 0.123671 10.4957C0.177337 10.5573 1.47834 12 4.83334 12C10.4043 12 13 6.82833 13 3.33333V3.16667C13 3.11733 12.9947 3.069 12.9927 3.02033C13.69 2.34633 13.9523 1.84067 13.965 1.81567C14.028 1.689 14.0047 1.53633 13.9063 1.435Z" fill="#00ACEE"></path>
</svg>